<svg width="300" height="320" viewBox="0 0 300 320" fill="none" xmlns="http://www.w3.org/2000/svg">
<g filter="url(#filter0_dddi_94_6)">
<mask id="mask0_94_6" style="mask-type:alpha" maskUnits="userSpaceOnUse" x="20" y="11" width="270" height="290">
<path d="M104.065 146.377C110.125 140.555 113.875 153.655 113.875 153.655C113.875 153.655 115.887 160.949 126.731 153.655C125.208 155.883 120.504 160.337 113.875 160.337C105.058 161.411 96.4891 153.655 104.065 146.377Z" fill="black" stroke="#E1C8FF" stroke-width="0.597745"/>
<path d="M149.251 36.3341C139.303 42.3633 122.804 36.6582 115.799 33.0521C115.799 27.3389 128.856 29.5269 140.546 29.5269C152.236 29.5269 149.251 26.0018 147.51 23.4492C145.769 20.8965 149.251 18.4653 164.299 22.4767C179.346 26.488 191.533 18.1007 188.673 26.0018C185.813 33.903 191.533 36.3341 197.751 43.1412C203.969 49.9483 237.546 48.125 234.188 52.3795C230.83 56.6339 205.461 53.7166 191.533 48.125C177.605 42.5334 185.688 33.0521 179.968 29.5269C174.247 26.0018 161.687 28.7976 149.251 36.3341Z" fill="black" stroke="#E1C8FF" stroke-width="0.597745"/>
<path d="M222.621 92.7163C214.289 113.259 200.112 109.856 193.273 111.314C189.956 112.685 182.777 114.822 180.588 112.408C186.06 93.5672 171.137 92.7163 165.914 91.0145C160.691 89.3127 155.592 88.2187 165.914 86.517C176.235 84.8152 182.08 66.5818 186.308 66.5818C190.537 66.5818 196.133 68.5267 190.412 77.0356C184.692 85.5445 183.697 97.457 199.864 102.319C216.03 107.181 220.01 81.1685 218.89 74.726C217.771 68.2836 206.455 70.8362 209.066 66.5818C211.678 62.3273 217.398 55.2771 224.86 68.5267C232.321 81.7763 246.747 82.3841 259.68 79.4667C270.026 77.1328 263.991 65.9335 259.68 60.6255C264.281 59.41 271.562 67.3111 271.935 74.726C272.308 82.1409 258.561 83.1134 257.068 86.517C255.576 89.9205 260.55 99.7666 257.068 102.319C253.586 104.872 257.441 92.7163 253.338 94.175C249.234 95.6337 239.285 87.611 234.435 86.517C230.555 85.6418 224.942 90.2852 222.621 92.7163Z" fill="black" stroke="#E1C8FF" stroke-width="0.597745"/>
<path d="M232.76 177.468C233.651 174.372 236.426 174.333 238.373 174.109C240.321 173.885 240.829 171.56 235.624 173.549C230.419 175.538 231.18 178.596 231.675 184.688C232.171 190.78 240.35 195.132 240.35 193.267C240.35 191.365 237.995 190.531 239.854 189.537C243.696 187.481 247.208 189.62 248.406 190.158L257.388 186.501C255.034 187.372 251.479 185.881 248.406 184.191C244.564 182.077 240.723 186.926 236.633 186.304C232.544 185.683 231.729 181.051 232.76 177.468Z" fill="black" stroke="#E1C8FF" stroke-width="0.597745"/>
<path d="M93.9132 82.2963C96.4998 75.3919 105.437 82.0587 109.582 85.5433C109.582 85.5433 114.059 89.698 124.505 91.1567C137.563 92.9801 149.999 66.6024 157.709 62.348C165.419 58.0935 172.632 58.0935 172.632 50.9217C172.632 43.7499 170.02 42.4128 154.351 58.0935C138.682 73.7742 103.364 81.1891 105.603 66.6024C107.841 52.0157 129.231 60.8893 132.589 58.0935C135.946 55.2977 112.816 53.7175 109.582 50.9217C106.349 48.1259 112.194 38.4014 105.603 35.9703C99.0118 33.5392 93.9132 37.429 96.7734 42.4128C99.6335 47.3966 97.8805 56.6348 89.9216 66.6024C81.9627 76.57 71.9962 66.2378 66.8975 66.6024C61.7987 66.9671 65.1326 69.6446 69.2364 78.1535C73.3402 86.6625 51.3288 94.1326 69.2364 91.7015C87.144 89.2704 78.6018 94.7277 91.4107 93.2691C104.22 91.8104 91.3265 89.2007 93.9132 82.2963Z" fill="black" stroke="#E1C8FF" stroke-width="0.597745"/>
<path fill-rule="evenodd" clip-rule="evenodd" d="M80.8531 242.737C83.0419 241.278 84.0865 235.484 84.3352 232.77C84.3352 263.645 138.86 304.39 170.447 300.743C194.64 297.95 196.468 277.657 197.507 266.125V266.124C197.825 262.6 198.069 259.894 198.855 258.756C200.285 256.685 206.309 255.403 213.27 253.922C222.654 251.926 233.74 249.567 237.572 244.424C242.443 237.885 240.504 232.931 239.096 229.336C238.096 226.782 237.365 224.915 239.534 223.653C242.309 222.038 242.436 219.774 242.569 217.403C242.686 215.311 242.808 213.137 244.757 211.254C247.859 208.259 246.783 203.839 245.849 199.996C245.29 197.698 244.781 195.607 245.246 194.151C245.818 192.363 249.023 191.914 252.804 191.384C257.249 190.761 262.49 190.026 265.178 186.873C268.197 183.332 266.305 177.354 264.156 170.565C263.782 169.383 263.4 168.176 263.035 166.954C262.189 167.316 261.337 167.678 260.479 168.037C260.713 168.901 260.948 169.761 261.179 170.609L261.179 170.609C262.893 176.882 264.422 182.477 263.802 184.075C263.381 185.16 260.691 185.74 257.405 186.45C251.577 187.707 243.876 189.37 243.637 194.966C243.475 198.772 244.348 201.636 244.997 203.767C245.841 206.536 246.308 208.068 243.637 208.823C238.912 210.161 230.455 211.376 225.108 208.823C219.76 206.271 218.268 210.161 220.507 212.105C221.55 213.012 225.46 212.492 229.537 211.95C234.205 211.329 239.093 210.678 240.155 212.105C242.145 214.78 243.02 219.565 234.936 221.024C229.627 221.982 229.735 222.449 229.87 223.035C229.941 223.342 230.019 223.681 229.336 224.139C228.436 224.744 230.112 225.29 232.142 225.952L232.142 225.952C234.431 226.698 237.171 227.591 237.171 228.88C237.171 229.271 237.317 229.913 237.503 230.725C238.471 234.962 240.493 243.81 228.178 245.544C213.504 247.611 204.81 244.682 190.163 232.527C183.406 234.553 165.963 236.125 150.244 226.206C149.592 225.794 148.954 225.392 148.328 224.998C130.119 213.523 123.333 209.247 125.497 196.789C126.193 192.784 127.225 188.697 128.197 184.846C130.354 176.305 132.219 168.922 129.476 166.157C125.497 162.146 120.522 160.809 121.642 163.483C121.864 164.013 122.247 164.601 122.678 165.262C124.422 167.935 126.948 171.809 122.761 177.948C122.098 184.026 120.448 197.446 119.155 202.503C117.538 208.823 127.525 227.995 151.775 236.139C176.024 244.283 185.861 248.244 190.163 259.999C193.355 268.721 189.504 284.509 184.65 289.771C179.796 295.034 175.944 295.034 175.944 295.034C151.775 300.968 96.9643 273.648 95.0291 244.683C93.0394 214.901 94.656 182.324 100.998 178.799C104.019 177.12 105.967 177.923 108.107 178.804C110.46 179.773 113.043 180.836 117.538 178.799C120.579 177.42 118.195 176.707 113.727 175.369C105.589 172.933 90.5394 168.428 88.7732 154.068C88.2838 150.088 88.1153 146.798 88.1538 144.07C83.2221 143.712 78.1351 143.564 72.8732 143.648C69.4893 148.684 67.5659 147.214 66.8878 143.84C63.2695 144.015 59.5692 144.297 55.781 144.693C58.53 150.491 61.2864 153.244 63.3689 155.323C66.2719 158.222 67.8651 159.813 66.3022 166.522C64.4634 174.415 58.1014 177.987 53.1643 180.759C50.4219 182.299 48.1192 183.592 47.2754 185.242C44.9126 189.861 42.6741 201.287 54.4882 202.016C59.7818 202.343 63.4025 201.328 66.0776 200.577C69.3726 199.653 71.2329 199.131 73.0174 202.016C76.2508 207.243 68.9135 213.443 58.0944 212.105C47.2754 210.768 45.9322 211.058 47.2754 216.846C47.5154 217.88 48.0042 219.028 48.5591 220.331C50.4211 224.703 53.0279 230.824 49.4832 240.282C49.3589 235.541 47.4504 219.824 41.694 212.738C37.0045 206.966 39.236 202.024 40.7335 198.707C41.2112 197.649 41.6143 196.756 41.694 196.055C41.7513 195.55 41.7867 194.979 41.8253 194.354C42.0183 191.231 42.2953 186.749 45.8177 182.395C48.2404 179.4 48.3246 175.783 48.3992 172.577C48.4547 170.188 48.505 168.027 49.5139 166.522C50.0194 165.768 50.6273 165.036 51.2257 164.315L51.2258 164.315C53.4242 161.669 55.4932 159.178 51.8765 156.311C49.4619 154.398 45.9512 150.991 44.1125 146.236C42.9705 146.418 41.8207 146.61 40.663 146.812C42.4978 150.581 45.2984 153.614 47.4807 155.979C48.7018 157.301 49.7294 158.415 50.2859 159.33C50.8376 160.236 50.3463 160.647 49.5054 161.35C48.0623 162.556 45.5894 164.622 45.5894 171.534C45.5894 177.294 43.7475 180.248 42.0033 183.045C40.435 185.56 38.9457 187.948 38.9457 192.136C38.9457 195.121 38.2233 197.022 37.5385 198.825C36.194 202.365 34.9941 205.523 39.6906 215.752C44.229 225.636 44.4852 227.198 45.0615 230.712C45.3852 232.687 45.81 235.277 47.1521 240.306C50.8828 254.285 68.1686 263.888 72.1481 256.351C72.6178 255.462 73.0599 254.618 73.4787 253.818L73.4802 253.815C76.6083 247.843 78.4406 244.345 80.8531 242.737ZM39.126 98.1539C40.5627 97.9638 42.0379 97.7771 43.5483 97.5947C50.084 84.9218 62.8544 56.536 65.0618 48.7069C67.8385 38.8583 76.925 36.791 86.8924 34.5234C93.2426 33.0787 99.9503 31.5526 105.612 27.8811C118.364 19.6109 145.589 15.005 155.555 14.1092C162.72 13.4652 170.155 15.1885 177.491 16.8887C183.608 18.3062 189.654 19.7076 195.417 19.7076C203.093 19.7076 212.029 22.5347 220.763 25.2983C228.321 27.6896 235.728 30.0333 242.038 30.4564C250.607 31.0308 275.909 34.6253 279.266 44.2283C280.647 48.1765 280.788 51.7718 280.917 55.0426C281.101 59.727 281.259 63.7456 284.994 67.1814C288.821 70.7021 283.033 75.2319 277.608 79.4771C274.043 82.2673 270.635 84.9346 270.217 87.1115C269.909 88.7186 269.939 90.4588 269.97 92.2323C270.056 97.1311 270.146 102.284 263.115 105.586C258.208 107.891 258.571 110.62 259.204 114.042C260.571 113.758 261.896 113.489 263.179 113.236C263.159 113.1 263.14 112.969 263.121 112.841C262.761 110.382 262.62 109.421 263.01 108.788C263.261 108.382 263.73 108.111 264.501 107.666C265.584 107.041 267.26 106.073 269.76 103.906C273.471 100.688 273.246 96.644 273.044 93.0019C272.907 90.5424 272.781 88.2662 273.883 86.5512C275.059 84.7236 277.665 82.7264 280.37 80.6539C283.962 77.9018 287.728 75.0168 288.546 72.2195C289.925 67.5008 288.815 66.3608 287.327 64.8328C285.863 63.33 284.034 61.4519 283.849 55.4245C283.476 43.2689 282.259 41.2393 277.32 37.1739C270.231 31.3393 252.626 28.9364 243.299 28.3286C239.516 28.082 234.429 26.3869 228.25 24.328C219.198 21.3114 207.802 17.5139 194.731 16.3481C184.497 15.4355 178.257 14.0028 173.236 12.85C166.335 11.2656 161.735 10.2096 152.234 11.7575C146.945 12.6191 143.29 13.1229 140.311 13.5337L140.311 13.5337C134.042 14.3979 130.761 14.8503 121.535 17.3558C113.998 19.4027 109.293 22.0049 104.043 24.909L104.043 24.909C101.113 26.5294 98.014 28.2437 94.1578 30.0081C90.4715 31.6947 86.7918 32.1074 83.2039 32.5099C74.2814 33.5107 65.9265 34.4479 59.4497 54.7527C54.9766 68.7763 48.97 79.5133 44.5362 87.4388C42.0647 91.8567 40.082 95.401 39.126 98.1539Z" fill="black"/>
<mask id="path-7-outside-1_94_6" maskUnits="userSpaceOnUse" x="17.4758" y="91.5746" width="265.466" height="86.3304" fill="black">
<rect fill="white" x="17.4758" y="91.5746" width="265.466" height="86.3304"/>
<path fill-rule="evenodd" clip-rule="evenodd" d="M21.6583 104.105C37.8994 100.741 80.167 92.1237 117.071 96.1803C135.887 98.2486 148.169 104.748 159.843 110.926C176.791 119.895 192.458 128.186 224.975 121.261C268.909 111.905 280.606 116.835 281.022 119.089C278.184 121.96 272.59 129.624 272.923 137.317C273.256 145.011 277.64 152.993 279.791 156.022C257.731 165.683 206.028 184.247 176.292 168.511C139.123 148.84 92.0112 130.525 30.8163 146.341C34.6303 137.54 38.9124 114.065 21.6583 104.105ZM97.2962 126.781L95.5635 136.813C97.3064 137.101 98.9229 137.351 100.413 137.565C101.903 137.778 103.364 137.971 104.795 138.142C105.413 133.409 106.177 128.117 107.089 122.264C108.654 122.62 110.48 123.003 112.567 123.412C114.691 123.795 117.255 124.234 120.256 124.729C119.652 128.036 119.102 131.028 118.606 133.704C118.117 136.349 117.692 138.518 117.333 140.211C118.807 140.519 120.284 140.811 121.763 141.088C122.7 141.263 123.533 141.524 124.34 141.776C125.164 142.033 125.959 142.282 126.807 142.422C127.024 141.161 127.185 139.708 127.353 138.188L127.353 138.188L127.353 138.188L127.353 138.188C127.522 136.666 127.697 135.076 127.946 133.542C128.474 130.482 129.003 127.324 129.532 124.07C130.093 120.82 130.608 117.644 131.078 114.542C131.553 111.408 131.968 108.524 132.323 105.89C130.196 104.155 126.678 102.362 124.101 102.28C123.87 103.621 123.552 105.583 123.238 107.521L123.238 107.522C122.931 109.414 122.628 111.282 122.413 112.528L121.155 119.816C116.619 119.359 112.154 118.785 107.759 118.092C108.161 115.57 108.897 112.318 109.645 109.012L109.645 109.012L109.645 109.012L109.645 109.012C110.351 105.894 111.068 102.728 111.525 100.079C110.503 99.8456 108.118 99.9706 105.993 100.263C104.566 100.459 104.22 100.528 103.474 100.675C103.109 100.748 102.647 100.839 101.916 100.973C101.708 101.989 101.53 103.089 101.339 104.27L101.339 104.271L101.339 104.271L101.339 104.272L101.339 104.272C101.14 105.5 100.928 106.814 100.653 108.208C100.152 110.915 99.6134 113.844 99.0363 116.993C98.4915 120.148 97.9114 123.411 97.2962 126.781ZM147.511 150.535C145.784 150.04 144.062 149.297 142.347 148.306C140.664 147.323 139.109 146.194 137.684 144.919C136.299 143.622 135.198 142.29 134.38 140.922C135.406 140.116 136.511 139.332 137.694 138.571C138.887 137.779 140.169 137.029 141.541 136.322C142.379 137.963 143.371 139.547 144.516 141.075C145.67 142.573 146.883 143.871 148.157 144.969C149.462 146.077 150.743 146.81 152 147.17C153.13 147.494 154.223 147.491 155.277 147.159C156.372 146.806 157.09 146.062 157.431 144.926C157.753 143.851 157.614 142.778 157.015 141.706C156.425 140.603 155.544 139.501 154.374 138.399C153.244 137.275 152.016 136.139 150.688 134.992C149.522 133.991 148.38 132.964 147.264 131.911C146.147 130.857 145.159 129.774 144.299 128.661C143.47 127.556 142.873 126.419 142.508 125.247C142.184 124.054 142.21 122.828 142.588 121.569C142.965 120.31 143.663 119.177 144.682 118.168C145.732 117.169 147.012 116.369 148.523 115.768C150.042 115.137 151.718 114.783 153.548 114.707C155.419 114.61 157.36 114.849 159.37 115.425C161.663 116.082 163.312 117.232 164.593 118.893C165.611 120.214 166.556 121.862 167.43 123.388L167.43 123.388L167.43 123.388C168.001 124.384 168.541 125.327 169.053 126.093C168.057 126.309 168.001 126.344 167.543 126.635C167.375 126.742 167.152 126.883 166.809 127.08C165.577 128.054 165.235 128.487 164.521 129.39L164.519 129.393C164.429 129.506 164.334 129.627 164.23 129.757C163.69 128.847 163.149 127.689 162.6 126.513L162.6 126.513C161.742 124.678 160.863 122.796 159.933 121.738C158.417 119.97 156.826 118.847 155.161 118.37C153.936 118.019 152.918 118.061 152.105 118.495C151.334 118.907 150.846 119.451 150.644 120.127C150.423 120.863 150.566 121.638 151.073 122.45C151.58 123.262 152.311 124.122 153.267 125.029C154.223 125.936 155.284 126.89 156.45 127.891C157.67 128.941 158.892 130.041 160.116 131.192C161.372 132.352 162.469 133.583 163.409 134.886C164.389 136.167 165.076 137.514 165.471 138.928C165.866 140.341 165.833 141.815 165.373 143.35C164.913 144.885 164.083 146.231 162.883 147.388C161.724 148.523 160.313 149.419 158.649 150.076C157.017 150.742 155.229 151.13 153.286 151.24C151.384 151.328 149.459 151.093 147.511 150.535ZM186.654 126.988C185.173 126.57 184.466 126.318 182.13 125.359C181.81 126.233 181.341 127.462 180.724 129.047C180.118 130.602 179.409 132.393 178.595 134.419C177.793 136.415 176.931 138.526 176.009 140.752C175.129 142.958 174.228 145.175 173.306 147.401C172.415 149.638 171.548 151.764 170.703 153.779C169.859 155.794 169.098 157.584 168.419 159.147L173.824 161.871L182.211 134.515C182.298 137.876 182.466 141.539 182.715 145.501C182.855 147.619 183.119 149.608 183.393 151.673C183.628 153.443 183.87 155.267 184.047 157.275C184.047 157.275 185.899 158.41 187.185 158.936C188.598 159.513 190.948 160.015 190.948 160.015C194.343 155.787 195.647 154.008 197.901 150.933C198.205 150.519 198.526 150.081 198.872 149.61C199.829 148.591 200.562 147.646 201.324 146.663C202.607 145.008 203.972 143.248 206.624 140.857C205.718 143.327 204.703 145.996 203.579 148.865C202.487 151.745 201.346 154.71 200.157 157.76C199.275 160.019 197.465 164.365 196.089 167.666C195.626 168.777 195.213 169.77 194.9 170.525L194.937 170.544C195.785 170.984 196.513 171.361 197.993 171.645C198.132 171.671 198.263 171.697 198.388 171.721C199.626 171.961 200.307 172.093 201.659 172.093C203.148 172.093 203.783 172.093 204.637 171.981C205.093 170.582 206.217 167.396 207.047 165.042C207.213 164.573 207.367 164.136 207.502 163.753C208.312 161.454 209.176 159.004 210.097 156.404L212.857 148.602C213.819 145.982 214.699 143.538 215.498 141.268C215.952 140.032 216.966 137.384 217.898 134.95C218.691 132.879 219.425 130.963 219.705 130.201C219.705 130.201 215.51 130.788 213.792 130.733C212.778 130.701 211.86 130.736 210.973 130.769C210.142 130.801 209.339 130.831 208.509 130.805C207.182 132.418 206.012 134.174 204.865 135.897C203.518 137.921 202.202 139.899 200.698 141.538C199.429 142.922 198.319 144.412 197.096 146.053C195.637 148.013 194.016 150.188 191.773 152.656C191.546 149.959 191.368 147.177 191.238 144.31C191.139 141.454 191.081 138.629 191.064 135.836C191.049 133.5 191.155 131.413 191.26 129.326C191.281 128.917 191.302 128.508 191.321 128.097C189.995 128.054 188.983 127.722 187.971 127.39C187.54 127.248 187.109 127.107 186.654 126.988Z"/>
</mask>
<path fill-rule="evenodd" clip-rule="evenodd" d="M21.6583 104.105C37.8994 100.741 80.167 92.1237 117.071 96.1803C135.887 98.2486 148.169 104.748 159.843 110.926C176.791 119.895 192.458 128.186 224.975 121.261C268.909 111.905 280.606 116.835 281.022 119.089C278.184 121.96 272.59 129.624 272.923 137.317C273.256 145.011 277.64 152.993 279.791 156.022C257.731 165.683 206.028 184.247 176.292 168.511C139.123 148.84 92.0112 130.525 30.8163 146.341C34.6303 137.54 38.9124 114.065 21.6583 104.105ZM97.2962 126.781L95.5635 136.813C97.3064 137.101 98.9229 137.351 100.413 137.565C101.903 137.778 103.364 137.971 104.795 138.142C105.413 133.409 106.177 128.117 107.089 122.264C108.654 122.62 110.48 123.003 112.567 123.412C114.691 123.795 117.255 124.234 120.256 124.729C119.652 128.036 119.102 131.028 118.606 133.704C118.117 136.349 117.692 138.518 117.333 140.211C118.807 140.519 120.284 140.811 121.763 141.088C122.7 141.263 123.533 141.524 124.34 141.776C125.164 142.033 125.959 142.282 126.807 142.422C127.024 141.161 127.185 139.708 127.353 138.188L127.353 138.188L127.353 138.188L127.353 138.188C127.522 136.666 127.697 135.076 127.946 133.542C128.474 130.482 129.003 127.324 129.532 124.07C130.093 120.82 130.608 117.644 131.078 114.542C131.553 111.408 131.968 108.524 132.323 105.89C130.196 104.155 126.678 102.362 124.101 102.28C123.87 103.621 123.552 105.583 123.238 107.521L123.238 107.522C122.931 109.414 122.628 111.282 122.413 112.528L121.155 119.816C116.619 119.359 112.154 118.785 107.759 118.092C108.161 115.57 108.897 112.318 109.645 109.012L109.645 109.012L109.645 109.012L109.645 109.012C110.351 105.894 111.068 102.728 111.525 100.079C110.503 99.8456 108.118 99.9706 105.993 100.263C104.566 100.459 104.22 100.528 103.474 100.675C103.109 100.748 102.647 100.839 101.916 100.973C101.708 101.989 101.53 103.089 101.339 104.27L101.339 104.271L101.339 104.271L101.339 104.272L101.339 104.272C101.14 105.5 100.928 106.814 100.653 108.208C100.152 110.915 99.6134 113.844 99.0363 116.993C98.4915 120.148 97.9114 123.411 97.2962 126.781ZM147.511 150.535C145.784 150.04 144.062 149.297 142.347 148.306C140.664 147.323 139.109 146.194 137.684 144.919C136.299 143.622 135.198 142.29 134.38 140.922C135.406 140.116 136.511 139.332 137.694 138.571C138.887 137.779 140.169 137.029 141.541 136.322C142.379 137.963 143.371 139.547 144.516 141.075C145.67 142.573 146.883 143.871 148.157 144.969C149.462 146.077 150.743 146.81 152 147.17C153.13 147.494 154.223 147.491 155.277 147.159C156.372 146.806 157.09 146.062 157.431 144.926C157.753 143.851 157.614 142.778 157.015 141.706C156.425 140.603 155.544 139.501 154.374 138.399C153.244 137.275 152.016 136.139 150.688 134.992C149.522 133.991 148.38 132.964 147.264 131.911C146.147 130.857 145.159 129.774 144.299 128.661C143.47 127.556 142.873 126.419 142.508 125.247C142.184 124.054 142.21 122.828 142.588 121.569C142.965 120.31 143.663 119.177 144.682 118.168C145.732 117.169 147.012 116.369 148.523 115.768C150.042 115.137 151.718 114.783 153.548 114.707C155.419 114.61 157.36 114.849 159.37 115.425C161.663 116.082 163.312 117.232 164.593 118.893C165.611 120.214 166.556 121.862 167.43 123.388L167.43 123.388L167.43 123.388C168.001 124.384 168.541 125.327 169.053 126.093C168.057 126.309 168.001 126.344 167.543 126.635C167.375 126.742 167.152 126.883 166.809 127.08C165.577 128.054 165.235 128.487 164.521 129.39L164.519 129.393C164.429 129.506 164.334 129.627 164.23 129.757C163.69 128.847 163.149 127.689 162.6 126.513L162.6 126.513C161.742 124.678 160.863 122.796 159.933 121.738C158.417 119.97 156.826 118.847 155.161 118.37C153.936 118.019 152.918 118.061 152.105 118.495C151.334 118.907 150.846 119.451 150.644 120.127C150.423 120.863 150.566 121.638 151.073 122.45C151.58 123.262 152.311 124.122 153.267 125.029C154.223 125.936 155.284 126.89 156.45 127.891C157.67 128.941 158.892 130.041 160.116 131.192C161.372 132.352 162.469 133.583 163.409 134.886C164.389 136.167 165.076 137.514 165.471 138.928C165.866 140.341 165.833 141.815 165.373 143.35C164.913 144.885 164.083 146.231 162.883 147.388C161.724 148.523 160.313 149.419 158.649 150.076C157.017 150.742 155.229 151.13 153.286 151.24C151.384 151.328 149.459 151.093 147.511 150.535ZM186.654 126.988C185.173 126.57 184.466 126.318 182.13 125.359C181.81 126.233 181.341 127.462 180.724 129.047C180.118 130.602 179.409 132.393 178.595 134.419C177.793 136.415 176.931 138.526 176.009 140.752C175.129 142.958 174.228 145.175 173.306 147.401C172.415 149.638 171.548 151.764 170.703 153.779C169.859 155.794 169.098 157.584 168.419 159.147L173.824 161.871L182.211 134.515C182.298 137.876 182.466 141.539 182.715 145.501C182.855 147.619 183.119 149.608 183.393 151.673C183.628 153.443 183.87 155.267 184.047 157.275C184.047 157.275 185.899 158.41 187.185 158.936C188.598 159.513 190.948 160.015 190.948 160.015C194.343 155.787 195.647 154.008 197.901 150.933C198.205 150.519 198.526 150.081 198.872 149.61C199.829 148.591 200.562 147.646 201.324 146.663C202.607 145.008 203.972 143.248 206.624 140.857C205.718 143.327 204.703 145.996 203.579 148.865C202.487 151.745 201.346 154.71 200.157 157.76C199.275 160.019 197.465 164.365 196.089 167.666C195.626 168.777 195.213 169.77 194.9 170.525L194.937 170.544C195.785 170.984 196.513 171.361 197.993 171.645C198.132 171.671 198.263 171.697 198.388 171.721C199.626 171.961 200.307 172.093 201.659 172.093C203.148 172.093 203.783 172.093 204.637 171.981C205.093 170.582 206.217 167.396 207.047 165.042C207.213 164.573 207.367 164.136 207.502 163.753C208.312 161.454 209.176 159.004 210.097 156.404L212.857 148.602C213.819 145.982 214.699 143.538 215.498 141.268C215.952 140.032 216.966 137.384 217.898 134.95C218.691 132.879 219.425 130.963 219.705 130.201C219.705 130.201 215.51 130.788 213.792 130.733C212.778 130.701 211.86 130.736 210.973 130.769C210.142 130.801 209.339 130.831 208.509 130.805C207.182 132.418 206.012 134.174 204.865 135.897C203.518 137.921 202.202 139.899 200.698 141.538C199.429 142.922 198.319 144.412 197.096 146.053C195.637 148.013 194.016 150.188 191.773 152.656C191.546 149.959 191.368 147.177 191.238 144.31C191.139 141.454 191.081 138.629 191.064 135.836C191.049 133.5 191.155 131.413 191.26 129.326C191.281 128.917 191.302 128.508 191.321 128.097C189.995 128.054 188.983 127.722 187.971 127.39C187.54 127.248 187.109 127.107 186.654 126.988Z" fill="black"/>
<path d="M117.071 96.1803L117.005 96.7744V96.7744L117.071 96.1803ZM21.6583 104.105L21.5379 103.519L20 103.838L21.3589 104.622L21.6583 104.105ZM159.843 110.926L160.123 110.398V110.398L159.843 110.926ZM224.975 121.261L225.099 121.845V121.845L224.975 121.261ZM281.022 119.089L281.447 119.509L281.666 119.287L281.61 118.98L281.022 119.089ZM272.923 137.317L273.52 137.291V137.291L272.923 137.317ZM279.791 156.022L280.03 156.57L280.703 156.275L280.278 155.676L279.791 156.022ZM176.292 168.511L176.012 169.039V169.039L176.292 168.511ZM30.8163 146.341L30.2679 146.104L29.7819 147.226L30.9651 146.92L30.8163 146.341ZM95.5635 136.813L94.9745 136.712L94.8721 137.305L95.4653 137.403L95.5635 136.813ZM97.2962 126.781L96.7081 126.675L96.7071 126.68L97.2962 126.781ZM104.795 138.142L104.723 138.735L105.311 138.806L105.387 138.218L104.795 138.142ZM107.089 122.264L107.222 121.682L106.597 121.54L106.498 122.173L107.089 122.264ZM112.567 123.412L112.451 123.998L112.46 124L112.567 123.412ZM120.256 124.729L120.844 124.836L120.953 124.238L120.354 124.14L120.256 124.729ZM118.606 133.704L119.194 133.812L119.194 133.812L118.606 133.704ZM117.333 140.211L116.749 140.088L116.625 140.673L117.21 140.796L117.333 140.211ZM121.763 141.088L121.652 141.675V141.675L121.763 141.088ZM124.34 141.776L124.161 142.346V142.346L124.34 141.776ZM126.807 142.422L126.708 143.011L127.294 143.108L127.396 142.523L126.807 142.422ZM127.353 138.188L127.947 138.253L127.948 138.248L127.353 138.188ZM127.353 138.188L127.948 138.248L127.95 138.228L127.951 138.207L127.353 138.188ZM127.353 138.188L126.759 138.123L126.756 138.146L126.756 138.169L127.353 138.188ZM127.946 133.542L127.357 133.441L127.356 133.447L127.946 133.542ZM129.532 124.07L128.943 123.969L128.942 123.975L129.532 124.07ZM131.078 114.542L130.487 114.453L130.487 114.454L131.078 114.542ZM132.323 105.89L132.915 105.969L132.96 105.637L132.701 105.426L132.323 105.89ZM124.101 102.28L124.121 101.683L123.601 101.666L123.512 102.179L124.101 102.28ZM123.238 107.521L123.827 107.623L123.828 107.616L123.238 107.521ZM123.238 107.522L122.648 107.421L122.647 107.428L123.238 107.522ZM122.413 112.528L121.824 112.427L121.824 112.427L122.413 112.528ZM121.155 119.816L121.094 120.411L121.649 120.466L121.744 119.917L121.155 119.816ZM107.759 118.092L107.169 117.999L107.075 118.59L107.665 118.683L107.759 118.092ZM109.645 109.012L110.228 109.143L110.23 109.137L109.645 109.012ZM109.645 109.012L110.23 109.136L110.232 109.127L109.645 109.012ZM109.645 109.012L109.059 108.895L109.059 108.897L109.645 109.012ZM109.645 109.012L109.062 108.88L109.061 108.888L109.059 108.895L109.645 109.012ZM111.525 100.079L112.114 100.18L112.211 99.6224L111.659 99.4964L111.525 100.079ZM105.993 100.263L105.912 99.6709V99.6709L105.993 100.263ZM103.474 100.675L103.589 101.262L103.589 101.262L103.474 100.675ZM101.916 100.973L101.809 100.386L101.412 100.459L101.331 100.854L101.916 100.973ZM101.339 104.27L101.929 104.365L101.929 104.365L101.339 104.27ZM101.339 104.271L101.928 104.373L101.929 104.366L101.339 104.271ZM101.339 104.271L101.927 104.379L101.928 104.373L101.339 104.271ZM101.339 104.272L101.923 104.4L101.925 104.39L101.927 104.38L101.339 104.272ZM101.339 104.272L100.755 104.144L100.752 104.16L100.749 104.177L101.339 104.272ZM100.653 108.208L100.067 108.093L100.065 108.1L100.653 108.208ZM99.0363 116.993L98.4483 116.887L98.4473 116.893L99.0363 116.993ZM142.347 148.306L142.045 148.822L142.048 148.823L142.347 148.306ZM147.511 150.535L147.677 149.961V149.961L147.511 150.535ZM137.684 144.919L137.275 145.356L137.285 145.365L137.684 144.919ZM134.38 140.922L134.011 140.452L133.597 140.778L133.867 141.229L134.38 140.922ZM137.694 138.571L138.017 139.074L138.025 139.069L137.694 138.571ZM141.541 136.322L142.073 136.05L141.801 135.516L141.267 135.791L141.541 136.322ZM144.516 141.075L144.037 141.434L144.042 141.441L144.516 141.075ZM148.157 144.969L147.766 145.422L147.77 145.425L148.157 144.969ZM152 147.17L151.834 147.745L151.834 147.745L152 147.17ZM155.277 147.159L155.456 147.729L155.46 147.728L155.277 147.159ZM157.431 144.926L158.003 145.097V145.097L157.431 144.926ZM157.015 141.706L156.488 141.989L156.493 141.998L157.015 141.706ZM154.374 138.399L153.952 138.823L153.958 138.829L153.964 138.834L154.374 138.399ZM150.688 134.992L151.08 134.54L151.078 134.538L150.688 134.992ZM147.264 131.911L146.853 132.346L146.853 132.346L147.264 131.911ZM144.299 128.661L143.82 129.02L143.825 129.027L144.299 128.661ZM142.508 125.247L141.931 125.405L141.934 125.415L141.938 125.426L142.508 125.247ZM142.588 121.569L143.161 121.74L143.161 121.74L142.588 121.569ZM144.682 118.168L144.27 117.736L144.262 117.744L144.682 118.168ZM148.523 115.768L148.743 116.324L148.752 116.32L148.523 115.768ZM153.548 114.707L153.572 115.305L153.578 115.304L153.548 114.707ZM159.37 115.425L159.204 116L159.205 116L159.37 115.425ZM164.593 118.893L165.066 118.527L165.066 118.527L164.593 118.893ZM167.43 123.388L167.964 123.118L167.957 123.104L167.949 123.09L167.43 123.388ZM167.43 123.388L166.896 123.657L166.906 123.677L166.917 123.696L167.43 123.388ZM167.43 123.388L167.949 123.091L167.943 123.08L167.43 123.388ZM169.053 126.093L169.179 126.677L170.038 126.49L169.55 125.76L169.053 126.093ZM167.543 126.635L167.223 126.131L167.223 126.131L167.543 126.635ZM166.809 127.08L166.512 126.562L166.474 126.584L166.439 126.612L166.809 127.08ZM164.521 129.39L164.052 129.02L164.051 129.021L164.521 129.39ZM164.519 129.393L164.987 129.763L164.989 129.762L164.519 129.393ZM164.23 129.757L163.716 130.062L164.157 130.806L164.697 130.129L164.23 129.757ZM162.6 126.513L162.054 126.759L162.058 126.767L162.6 126.513ZM162.6 126.513L163.145 126.267L163.141 126.259L162.6 126.513ZM159.933 121.738L159.479 122.127L159.483 122.132L159.933 121.738ZM155.161 118.37L154.996 118.945L154.996 118.945L155.161 118.37ZM152.105 118.495L151.824 117.968L151.824 117.968L152.105 118.495ZM150.644 120.127L151.216 120.297L151.216 120.297L150.644 120.127ZM151.073 122.45L151.58 122.133L151.58 122.133L151.073 122.45ZM153.267 125.029L152.855 125.463L152.855 125.463L153.267 125.029ZM156.45 127.891L156.841 127.438L156.84 127.438L156.45 127.891ZM160.116 131.192L159.707 131.628L159.71 131.631L160.116 131.192ZM163.409 134.886L162.924 135.236L162.929 135.243L162.934 135.25L163.409 134.886ZM165.471 138.928L166.047 138.766V138.766L165.471 138.928ZM162.883 147.388L162.468 146.958L162.465 146.961L162.883 147.388ZM158.649 150.076L158.43 149.52L158.424 149.522L158.649 150.076ZM153.286 151.24L153.313 151.837L153.319 151.836L153.286 151.24ZM182.13 125.359L182.358 124.806L181.784 124.57L181.569 125.154L182.13 125.359ZM186.654 126.988L186.491 127.563L186.502 127.566L186.654 126.988ZM180.724 129.047L181.281 129.263L181.281 129.263L180.724 129.047ZM178.595 134.419L179.15 134.641L179.15 134.641L178.595 134.419ZM176.009 140.752L175.456 140.524L175.454 140.531L176.009 140.752ZM173.306 147.401L172.754 147.173L172.751 147.18L173.306 147.401ZM170.703 153.779L171.255 154.009L171.255 154.009L170.703 153.779ZM168.419 159.147L167.871 158.91L167.646 159.428L168.149 159.681L168.419 159.147ZM173.824 161.871L173.554 162.405L174.187 162.724L174.395 162.046L173.824 161.871ZM182.211 134.515L182.809 134.498L181.64 134.34L182.211 134.515ZM182.715 145.501L182.119 145.539L182.119 145.541L182.715 145.501ZM183.393 151.673L182.801 151.753V151.753L183.393 151.673ZM184.047 157.275L183.452 157.329L183.478 157.628L183.734 157.785L184.047 157.275ZM187.185 158.936L186.958 159.489V159.489L187.185 158.936ZM190.948 160.015L190.823 160.6L191.183 160.677L191.414 160.389L190.948 160.015ZM197.901 150.933L198.383 151.286L198.383 151.286L197.901 150.933ZM198.872 149.61L198.437 149.201L198.412 149.228L198.39 149.257L198.872 149.61ZM201.324 146.663L200.851 146.297V146.297L201.324 146.663ZM206.624 140.857L207.185 141.063L206.224 140.414L206.624 140.857ZM203.579 148.865L203.023 148.648L203.021 148.654L203.579 148.865ZM200.157 157.76L200.714 157.977L200.714 157.977L200.157 157.76ZM196.089 167.666L196.641 167.895L196.641 167.895L196.089 167.666ZM194.9 170.525L194.348 170.298L194.139 170.804L194.625 171.056L194.9 170.525ZM194.937 170.544L195.212 170.013L195.212 170.013L194.937 170.544ZM197.993 171.645L197.88 172.232L197.88 172.232L197.993 171.645ZM198.388 171.721L198.274 172.308V172.308L198.388 171.721ZM201.659 172.093L201.66 171.495L201.66 171.495L201.659 172.093ZM204.637 171.981L204.714 172.574L205.088 172.524L205.205 172.165L204.637 171.981ZM207.047 165.042L206.484 164.844L206.484 164.844L207.047 165.042ZM207.502 163.753L208.066 163.951L208.066 163.951L207.502 163.753ZM210.097 156.404L210.66 156.602L210.66 156.602L210.097 156.404ZM212.857 148.602L212.296 148.397L212.294 148.403L212.857 148.602ZM215.498 141.268L214.937 141.063L214.934 141.071L215.498 141.268ZM217.898 134.95L217.34 134.737V134.737L217.898 134.95ZM219.705 130.201L220.266 130.407L220.609 129.471L219.623 129.609L219.705 130.201ZM210.973 130.769L210.951 130.172V130.172L210.973 130.769ZM208.509 130.805L208.529 130.208L208.235 130.198L208.048 130.426L208.509 130.805ZM204.865 135.897L205.363 136.228V136.228L204.865 135.897ZM200.698 141.538L200.257 141.134L200.257 141.135L200.698 141.538ZM197.096 146.053L197.575 146.41L197.575 146.41L197.096 146.053ZM191.773 152.656L191.177 152.707L191.292 154.073L192.215 153.058L191.773 152.656ZM191.238 144.31L190.641 144.332L190.641 144.338L191.238 144.31ZM191.064 135.836L190.466 135.84V135.84L191.064 135.836ZM191.26 129.326L190.663 129.297L190.663 129.297L191.26 129.326ZM191.321 128.097L191.919 128.125L191.948 127.519L191.341 127.499L191.321 128.097ZM187.971 127.39L187.783 127.958L187.783 127.958L187.971 127.39ZM117.071 96.1803L117.137 95.5861C80.1263 91.5178 37.7703 100.157 21.5379 103.519L21.6583 104.105L21.7788 104.69C38.0284 101.324 80.2077 92.7296 117.005 96.7744L117.071 96.1803ZM159.843 110.926L160.123 110.398C148.442 104.216 136.074 97.6677 117.137 95.5861L117.071 96.1803L117.005 96.7744C135.699 98.8294 147.895 105.28 159.563 111.455L159.843 110.926ZM224.975 121.261L224.851 120.676C208.664 124.123 196.707 123.777 186.706 121.471C176.692 119.163 168.604 114.885 160.123 110.398L159.843 110.926L159.563 111.455C168.03 115.935 176.249 120.288 186.435 122.636C196.633 124.987 208.769 125.323 225.099 121.845L224.975 121.261ZM281.022 119.089L281.61 118.98C281.518 118.482 281.15 118.042 280.654 117.672C280.143 117.291 279.419 116.925 278.462 116.596C276.546 115.938 273.609 115.398 269.343 115.224C260.805 114.876 246.843 115.993 224.851 120.676L224.975 121.261L225.099 121.845C247.04 117.173 260.894 116.076 269.292 116.418C273.494 116.589 276.305 117.12 278.072 117.727C278.957 118.031 279.558 118.347 279.938 118.631C280.333 118.925 280.422 119.132 280.434 119.198L281.022 119.089ZM272.923 137.317L273.52 137.291C273.36 133.59 274.627 129.859 276.312 126.673C277.994 123.491 280.067 120.904 281.447 119.509L281.022 119.089L280.597 118.669C279.139 120.144 276.995 122.825 275.255 126.116C273.516 129.403 272.153 133.351 272.326 137.344L272.923 137.317ZM279.791 156.022L280.278 155.676C278.157 152.688 273.846 144.819 273.52 137.291L272.923 137.317L272.326 137.344C272.666 145.203 277.123 153.298 279.303 156.369L279.791 156.022ZM176.292 168.511L176.012 169.039C191.071 177.008 211.606 176.264 231.036 172.377C250.494 168.484 268.978 161.41 280.03 156.57L279.791 156.022L279.551 155.475C268.544 160.296 250.146 167.334 230.803 171.204C211.433 175.08 191.249 175.749 176.572 167.982L176.292 168.511ZM30.8163 146.341L30.9651 146.92C91.9495 131.158 138.898 149.398 176.012 169.039L176.292 168.511L176.572 167.982C139.348 148.283 92.0728 129.892 30.6675 145.763L30.8163 146.341ZM21.6583 104.105L21.3589 104.622C29.7596 109.472 32.9414 117.612 33.5417 125.703C34.1431 133.807 32.1419 141.78 30.2679 146.104L30.8163 146.341L31.3647 146.578C33.3047 142.101 35.3516 133.936 34.734 125.613C34.1153 117.275 30.8111 108.698 21.9578 103.587L21.6583 104.105ZM95.5635 136.813L96.1526 136.914L97.8852 126.882L97.2962 126.781L96.7071 126.68L94.9745 136.712L95.5635 136.813ZM100.413 137.565L100.499 136.973C99.0133 136.76 97.4011 136.51 95.6617 136.223L95.5635 136.813L95.4653 137.403C97.2117 137.691 98.8324 137.942 100.327 138.156L100.413 137.565ZM104.795 138.142L104.866 137.548C103.44 137.378 101.984 137.186 100.499 136.973L100.413 137.565L100.327 138.156C101.822 138.37 103.287 138.563 104.723 138.735L104.795 138.142ZM107.089 122.264L106.498 122.173C105.586 128.029 104.821 133.327 104.202 138.065L104.795 138.142L105.387 138.218C106.005 133.492 106.769 128.204 107.679 122.356L107.089 122.264ZM112.567 123.412L112.683 122.825C110.6 122.417 108.78 122.036 107.222 121.682L107.089 122.264L106.955 122.847C108.528 123.205 110.36 123.588 112.451 123.998L112.567 123.412ZM120.256 124.729L120.354 124.14C117.355 123.645 114.795 123.206 112.674 122.824L112.567 123.412L112.46 124C114.588 124.384 117.155 124.823 120.158 125.319L120.256 124.729ZM118.606 133.704L119.194 133.812C119.69 131.136 120.24 128.143 120.844 124.836L120.256 124.729L119.668 124.623C119.064 127.929 118.514 130.921 118.019 133.596L118.606 133.704ZM117.333 140.211L117.918 140.334C118.278 138.634 118.704 136.46 119.194 133.812L118.606 133.704L118.019 133.596C117.529 136.238 117.106 138.402 116.749 140.088L117.333 140.211ZM121.763 141.088L121.874 140.5C120.399 140.224 118.926 139.933 117.457 139.626L117.333 140.211L117.21 140.796C118.688 141.105 120.169 141.398 121.652 141.675L121.763 141.088ZM124.34 141.776L124.519 141.205C123.716 140.954 122.85 140.683 121.874 140.5L121.763 141.088L121.652 141.675C122.549 141.843 123.351 142.093 124.161 142.346L124.34 141.776ZM126.807 142.422L126.905 141.832C126.105 141.7 125.349 141.465 124.519 141.205L124.34 141.776L124.161 142.346C124.978 142.602 125.813 142.864 126.708 143.011L126.807 142.422ZM127.353 138.188L126.759 138.124C126.59 139.649 126.432 141.081 126.217 142.321L126.807 142.422L127.396 142.523C127.617 141.24 127.78 139.768 127.947 138.253L127.353 138.188ZM127.353 138.188L126.758 138.128L126.758 138.128L127.353 138.188L127.948 138.248L127.948 138.248L127.353 138.188ZM127.353 138.188L126.756 138.169L126.756 138.169L127.353 138.188L127.951 138.207L127.951 138.207L127.353 138.188ZM127.353 138.188L126.756 138.169L126.756 138.169L127.353 138.188L127.951 138.207L127.951 138.207L127.353 138.188ZM127.946 133.542L127.356 133.447C127.104 134.998 126.927 136.604 126.759 138.123L127.353 138.188L127.947 138.253C128.116 136.728 128.29 135.153 128.536 133.637L127.946 133.542ZM129.532 124.07L128.942 123.975C128.413 127.228 127.885 130.383 127.357 133.441L127.946 133.542L128.535 133.643C129.064 130.581 129.593 127.421 130.122 124.165L129.532 124.07ZM131.078 114.542L130.487 114.454C130.018 117.552 129.503 120.723 128.943 123.969L129.532 124.07L130.121 124.171C130.683 120.917 131.199 117.737 131.669 114.631L131.078 114.542ZM132.323 105.89L131.731 105.811C131.376 108.441 130.961 111.322 130.487 114.453L131.078 114.542L131.669 114.631C132.144 111.494 132.56 108.607 132.915 105.969L132.323 105.89ZM124.101 102.28L124.081 102.878C125.257 102.915 126.697 103.349 128.13 104.008C129.555 104.664 130.923 105.52 131.945 106.353L132.323 105.89L132.701 105.426C131.596 104.525 130.141 103.617 128.631 102.922C127.129 102.231 125.522 101.728 124.121 101.683L124.101 102.28ZM123.238 107.521L123.828 107.616C124.142 105.677 124.459 103.719 124.69 102.381L124.101 102.28L123.512 102.179C123.28 103.524 122.961 105.49 122.648 107.427L123.238 107.521ZM123.238 107.522L123.827 107.624L123.827 107.623L123.238 107.521L122.649 107.42L122.649 107.421L123.238 107.522ZM122.413 112.528L123.002 112.629C123.218 111.379 123.521 109.507 123.828 107.617L123.238 107.522L122.647 107.428C122.341 109.32 122.039 111.185 121.824 112.427L122.413 112.528ZM121.155 119.816L121.744 119.917L123.002 112.629L122.413 112.528L121.824 112.427L120.565 119.715L121.155 119.816ZM107.759 118.092L107.665 118.683C112.072 119.377 116.548 119.953 121.094 120.411L121.155 119.816L121.215 119.221C116.691 118.766 112.237 118.193 107.853 117.502L107.759 118.092ZM109.645 109.012L109.062 108.881C108.315 112.18 107.574 115.454 107.169 117.999L107.759 118.092L108.35 118.185C108.747 115.687 109.478 112.456 110.228 109.143L109.645 109.012ZM109.645 109.012L109.061 108.888L109.061 108.888L109.645 109.012L110.23 109.137L110.23 109.136L109.645 109.012ZM109.645 109.012L109.059 108.897L109.059 108.897L109.645 109.012L110.232 109.127L110.232 109.127L109.645 109.012ZM109.645 109.012L109.059 108.895L109.059 108.895L109.645 109.012L110.231 109.129L110.231 109.129L109.645 109.012ZM111.525 100.079L110.936 99.9782C110.482 102.609 109.769 105.758 109.062 108.88L109.645 109.012L110.228 109.143C110.933 106.03 111.654 102.847 112.114 100.18L111.525 100.079ZM105.993 100.263L106.073 100.855C107.119 100.711 108.227 100.609 109.195 100.571C110.182 100.533 110.964 100.564 111.391 100.662L111.525 100.079L111.659 99.4964C111.065 99.3605 110.143 99.3378 109.15 99.3766C108.138 99.416 106.991 99.5224 105.912 99.6709L105.993 100.263ZM103.474 100.675L103.589 101.262C104.324 101.116 104.659 101.05 106.073 100.855L105.993 100.263L105.912 99.6709C104.474 99.8688 104.116 99.9392 103.359 100.089L103.474 100.675ZM101.916 100.973L102.024 101.561C102.759 101.426 103.223 101.334 103.589 101.262L103.474 100.675L103.359 100.089C102.995 100.161 102.536 100.252 101.809 100.386L101.916 100.973ZM101.339 104.27L101.929 104.365C102.121 103.181 102.297 102.093 102.502 101.092L101.916 100.973L101.331 100.854C101.12 101.884 100.94 102.998 100.749 104.175L101.339 104.27ZM101.339 104.271L101.929 104.366L101.929 104.365L101.339 104.27L100.749 104.175L100.749 104.175L101.339 104.271ZM101.339 104.271L101.928 104.373L101.928 104.373L101.339 104.271L100.75 104.169L100.75 104.169L101.339 104.271ZM101.339 104.272L101.927 104.38L101.927 104.379L101.339 104.271L100.751 104.163L100.751 104.164L101.339 104.272ZM101.339 104.272L101.923 104.4L101.923 104.4L101.339 104.272L100.755 104.144L100.755 104.144L101.339 104.272ZM100.653 108.208L101.24 108.322C101.517 106.917 101.731 105.593 101.929 104.366L101.339 104.272L100.749 104.177C100.55 105.406 100.339 106.711 100.067 108.093L100.653 108.208ZM99.0363 116.993L99.6243 117.1C100.201 113.951 100.74 111.023 101.241 108.316L100.653 108.208L100.065 108.1C99.5645 110.808 99.0255 113.737 98.4483 116.887L99.0363 116.993ZM97.2962 126.781L97.8842 126.888C98.4998 123.516 99.0802 120.251 99.6254 117.094L99.0363 116.993L98.4473 116.893C97.9028 120.045 97.323 123.306 96.7081 126.675L97.2962 126.781ZM142.347 148.306L142.048 148.823C143.801 149.837 145.567 150.6 147.346 151.11L147.511 150.535L147.677 149.961C146.001 149.481 144.324 148.758 142.647 147.788L142.347 148.306ZM137.684 144.919L137.285 145.365C138.741 146.667 140.328 147.82 142.045 148.822L142.347 148.306L142.649 147.789C141 146.827 139.478 145.721 138.083 144.473L137.684 144.919ZM134.38 140.922L133.867 141.229C134.718 142.653 135.857 144.028 137.275 145.356L137.684 144.919L138.093 144.483C136.741 143.217 135.678 141.927 134.893 140.615L134.38 140.922ZM137.694 138.571L137.371 138.068C136.174 138.839 135.053 139.634 134.011 140.452L134.38 140.922L134.749 141.392C135.759 140.598 136.849 139.825 138.017 139.073L137.694 138.571ZM141.541 136.322L141.267 135.791C139.878 136.508 138.576 137.268 137.364 138.073L137.694 138.571L138.025 139.069C139.197 138.29 140.46 137.551 141.814 136.853L141.541 136.322ZM144.516 141.075L144.994 140.717C143.869 139.214 142.895 137.659 142.073 136.05L141.541 136.322L141.008 136.595C141.863 138.267 142.872 139.88 144.037 141.434L144.516 141.075ZM148.157 144.969L148.548 144.516C147.308 143.447 146.122 142.18 144.989 140.71L144.516 141.075L144.042 141.441C145.217 142.966 146.459 144.294 147.766 145.422L148.157 144.969ZM152 147.17L152.165 146.596C151.011 146.265 149.804 145.582 148.544 144.513L148.157 144.969L147.77 145.425C149.121 146.571 150.475 147.356 151.834 147.745L152 147.17ZM155.277 147.159L155.099 146.589C154.164 146.883 153.191 146.89 152.165 146.596L152 147.17L151.834 147.745C153.07 148.099 154.282 148.098 155.456 147.729L155.277 147.159ZM157.431 144.926L156.858 144.755C156.572 145.709 155.995 146.3 155.095 146.59L155.277 147.159L155.46 147.728C156.749 147.312 157.608 146.414 158.003 145.097L157.431 144.926ZM157.015 141.706L156.493 141.998C157.022 142.944 157.129 143.851 156.858 144.755L157.431 144.926L158.003 145.097C158.377 143.851 158.207 142.612 157.537 141.414L157.015 141.706ZM154.374 138.399L153.964 138.834C155.1 139.904 155.935 140.956 156.488 141.989L157.015 141.706L157.542 141.423C156.914 140.25 155.989 139.098 154.784 137.963L154.374 138.399ZM150.688 134.992L150.297 135.445C151.615 136.584 152.833 137.71 153.952 138.823L154.374 138.399L154.796 137.975C153.655 136.84 152.417 135.695 151.08 134.54L150.688 134.992ZM147.264 131.911L146.853 132.346C147.977 133.406 149.125 134.439 150.299 135.446L150.688 134.992L151.078 134.538C149.919 133.544 148.784 132.523 147.674 131.476L147.264 131.911ZM144.299 128.661L143.825 129.027C144.706 130.167 145.716 131.273 146.853 132.346L147.264 131.911L147.674 131.476C146.578 130.442 145.611 129.381 144.772 128.295L144.299 128.661ZM142.508 125.247L141.938 125.426C142.325 126.67 142.956 127.868 143.82 129.02L144.299 128.661L144.777 128.302C143.984 127.245 143.421 126.167 143.079 125.069L142.508 125.247ZM142.588 121.569L142.015 121.398C141.608 122.757 141.576 124.097 141.931 125.405L142.508 125.247L143.085 125.09C142.792 124.011 142.813 122.899 143.161 121.74L142.588 121.569ZM144.682 118.168L144.262 117.744C143.179 118.816 142.424 120.035 142.015 121.398L142.588 121.569L143.161 121.74C143.507 120.586 144.148 119.537 145.102 118.593L144.682 118.168ZM148.523 115.768L148.303 115.213C146.73 115.838 145.382 116.678 144.27 117.736L144.682 118.168L145.094 118.601C146.082 117.66 147.295 116.899 148.743 116.323L148.523 115.768ZM153.548 114.707L153.524 114.11C151.631 114.188 149.886 114.555 148.294 115.216L148.523 115.768L148.752 116.32C150.199 115.718 151.804 115.378 153.572 115.305L153.548 114.707ZM159.37 115.425L159.535 114.851C157.469 114.258 155.462 114.009 153.518 114.11L153.548 114.707L153.578 115.304C155.376 115.211 157.25 115.44 159.204 116L159.37 115.425ZM164.593 118.893L165.066 118.527C163.705 116.762 161.947 115.541 159.535 114.851L159.37 115.425L159.205 116C161.379 116.623 162.918 117.701 164.119 119.258L164.593 118.893ZM167.43 123.388L167.949 123.09C167.08 121.573 166.114 119.887 165.066 118.527L164.593 118.893L164.119 119.258C165.108 120.541 166.032 122.151 166.911 123.685L167.43 123.388ZM167.43 123.388L167.964 123.119L167.964 123.118L167.43 123.388L166.896 123.657L166.896 123.657L167.43 123.388ZM167.43 123.388L167.943 123.08L167.943 123.08L167.43 123.388L166.917 123.696L166.917 123.696L167.43 123.388ZM169.053 126.093L169.55 125.76C169.052 125.015 168.523 124.092 167.949 123.091L167.43 123.388L166.911 123.686C167.479 124.676 168.03 125.639 168.555 126.425L169.053 126.093ZM167.543 126.635L167.863 127.14C168.098 126.991 168.175 126.944 168.303 126.897C168.451 126.842 168.671 126.787 169.179 126.677L169.053 126.093L168.927 125.509C168.439 125.614 168.133 125.686 167.89 125.775C167.626 125.873 167.446 125.989 167.223 126.131L167.543 126.635ZM166.809 127.08L167.107 127.598C167.461 127.395 167.692 127.248 167.863 127.14L167.543 126.635L167.223 126.131C167.057 126.236 166.843 126.372 166.512 126.562L166.809 127.08ZM164.521 129.39L164.99 129.76C165.686 128.88 165.996 128.484 167.18 127.549L166.809 127.08L166.439 126.612C165.158 127.624 164.784 128.095 164.052 129.02L164.521 129.39ZM164.519 129.393L164.989 129.762L164.991 129.759L164.521 129.39L164.051 129.021L164.049 129.024L164.519 129.393ZM164.23 129.757L164.697 130.129C164.802 129.998 164.898 129.877 164.987 129.763L164.519 129.393L164.05 129.023C163.96 129.136 163.866 129.256 163.763 129.385L164.23 129.757ZM162.6 126.513L162.058 126.767C162.604 127.935 163.158 129.122 163.716 130.062L164.23 129.757L164.745 129.451C164.223 128.572 163.695 127.444 163.141 126.259L162.6 126.513ZM162.6 126.513L162.054 126.759L162.054 126.759L162.6 126.513L163.145 126.267L163.145 126.267L162.6 126.513ZM159.933 121.738L159.483 122.132C160.343 123.112 161.184 124.897 162.058 126.767L162.6 126.513L163.141 126.259C162.299 124.458 161.382 122.481 160.382 121.343L159.933 121.738ZM155.161 118.37L154.996 118.945C156.516 119.38 158.013 120.418 159.479 122.127L159.933 121.738L160.387 121.348C158.82 119.521 157.136 118.314 155.327 117.796L155.161 118.37ZM152.105 118.495L152.386 119.022C153.016 118.685 153.862 118.62 154.996 118.945L155.161 118.37L155.327 117.796C154.011 117.419 152.819 117.436 151.824 117.968L152.105 118.495ZM150.644 120.127L151.216 120.297C151.363 119.81 151.719 119.378 152.386 119.022L152.105 118.495L151.824 117.968C150.948 118.436 150.33 119.092 150.071 119.956L150.644 120.127ZM151.073 122.45L151.58 122.133C151.14 121.428 151.057 120.831 151.216 120.297L150.644 120.127L150.071 119.956C149.789 120.896 149.992 121.848 150.566 122.767L151.073 122.45ZM153.267 125.029L153.679 124.595C152.747 123.71 152.052 122.889 151.58 122.133L151.073 122.45L150.566 122.767C151.107 123.634 151.875 124.533 152.855 125.463L153.267 125.029ZM156.45 127.891L156.84 127.438C155.68 126.442 154.626 125.495 153.679 124.595L153.267 125.029L152.855 125.463C153.819 126.378 154.888 127.339 156.061 128.345L156.45 127.891ZM160.116 131.192L160.526 130.756C159.296 129.6 158.068 128.494 156.841 127.438L156.45 127.891L156.06 128.345C157.273 129.388 158.489 130.483 159.707 131.628L160.116 131.192ZM163.409 134.886L163.894 134.536C162.929 133.199 161.805 131.938 160.522 130.753L160.116 131.192L159.71 131.631C160.938 132.766 162.009 133.968 162.924 135.236L163.409 134.886ZM165.471 138.928L166.047 138.766C165.63 137.273 164.905 135.858 163.884 134.522L163.409 134.886L162.934 135.25C163.872 136.476 164.523 137.756 164.896 139.089L165.471 138.928ZM165.373 143.35L165.946 143.521C166.435 141.888 166.475 140.298 166.047 138.766L165.471 138.928L164.896 139.089C165.257 140.384 165.231 141.742 164.8 143.179L165.373 143.35ZM162.883 147.388L163.298 147.818C164.568 146.593 165.454 145.159 165.946 143.521L165.373 143.35L164.8 143.179C164.371 144.612 163.597 145.87 162.469 146.958L162.883 147.388ZM158.649 150.076L158.868 150.632C160.598 149.948 162.079 149.011 163.301 147.815L162.883 147.388L162.465 146.961C161.369 148.035 160.027 148.889 158.43 149.52L158.649 150.076ZM153.286 151.24L153.319 151.836C155.321 151.723 157.175 151.322 158.874 150.629L158.649 150.076L158.424 149.522C156.859 150.161 155.137 150.536 153.253 150.643L153.286 151.24ZM147.511 150.535L147.346 151.11C149.352 151.685 151.342 151.928 153.313 151.837L153.286 151.24L153.259 150.643C151.426 150.728 149.566 150.502 147.677 149.961L147.511 150.535ZM182.13 125.359L181.903 125.912C184.248 126.875 184.979 127.137 186.491 127.563L186.654 126.988L186.817 126.412C185.367 126.003 184.683 125.761 182.358 124.806L182.13 125.359ZM180.724 129.047L181.281 129.263C181.898 127.677 182.369 126.443 182.692 125.565L182.13 125.359L181.569 125.154C181.251 126.022 180.783 127.247 180.167 128.831L180.724 129.047ZM178.595 134.419L179.15 134.641C179.964 132.613 180.674 130.821 181.281 129.263L180.724 129.047L180.167 128.831C179.562 130.383 178.853 132.172 178.04 134.197L178.595 134.419ZM176.009 140.752L176.561 140.98C177.483 138.752 178.346 136.639 179.15 134.641L178.595 134.419L178.041 134.196C177.239 136.19 176.378 138.299 175.457 140.524L176.009 140.752ZM173.306 147.401L173.859 147.629C174.781 145.4 175.683 143.182 176.564 140.972L176.009 140.752L175.454 140.531C174.575 142.735 173.675 144.949 172.754 147.173L173.306 147.401ZM170.703 153.779L171.255 154.009C172.101 151.99 172.969 149.861 173.862 147.621L173.306 147.401L172.751 147.18C171.861 149.414 170.995 151.537 170.152 153.549L170.703 153.779ZM168.419 159.147L168.967 159.385C169.647 157.818 170.41 156.026 171.255 154.009L170.703 153.779L170.152 153.549C169.308 155.562 168.548 157.349 167.871 158.91L168.419 159.147ZM173.824 161.871L174.094 161.337L168.689 158.613L168.419 159.147L168.149 159.681L173.554 162.405L173.824 161.871ZM182.211 134.515L181.64 134.34L173.252 161.697L173.824 161.871L174.395 162.046L182.783 134.689L182.211 134.515ZM182.715 145.501L183.312 145.463C183.063 141.506 182.896 137.852 182.809 134.498L182.211 134.515L181.614 134.531C181.701 137.901 181.869 141.571 182.119 145.539L182.715 145.501ZM183.393 151.673L183.986 151.594C183.712 149.526 183.45 147.556 183.312 145.461L182.715 145.501L182.119 145.541C182.26 147.682 182.527 149.69 182.801 151.753L183.393 151.673ZM184.047 157.275L184.643 157.222C184.464 155.199 184.22 153.362 183.986 151.594L183.393 151.673L182.801 151.753C183.035 153.523 183.276 155.336 183.452 157.329L184.047 157.275ZM187.185 158.936L187.412 158.382C186.805 158.134 186.047 157.734 185.427 157.387C185.12 157.215 184.853 157.059 184.662 156.946C184.567 156.89 184.491 156.844 184.439 156.813C184.413 156.797 184.393 156.785 184.38 156.777C184.373 156.773 184.368 156.77 184.365 156.768C184.363 156.767 184.362 156.766 184.361 156.766C184.361 156.766 184.361 156.766 184.361 156.765C184.36 156.765 184.36 156.765 184.36 156.765C184.36 156.765 184.36 156.765 184.36 156.765C184.36 156.765 184.36 156.765 184.047 157.275C183.734 157.785 183.735 157.785 183.735 157.785C183.735 157.785 183.735 157.785 183.735 157.785C183.735 157.785 183.735 157.785 183.735 157.785C183.735 157.785 183.736 157.786 183.736 157.786C183.737 157.787 183.739 157.787 183.741 157.789C183.744 157.791 183.75 157.794 183.757 157.799C183.772 157.808 183.793 157.82 183.82 157.837C183.875 157.87 183.953 157.917 184.052 157.975C184.249 158.092 184.525 158.252 184.841 158.43C185.469 158.782 186.28 159.212 186.958 159.489L187.185 158.936ZM190.948 160.015C191.074 159.431 191.074 159.431 191.074 159.431C191.074 159.431 191.074 159.431 191.074 159.431C191.074 159.431 191.074 159.431 191.074 159.431C191.074 159.43 191.073 159.43 191.073 159.43C191.072 159.43 191.071 159.43 191.068 159.429C191.064 159.428 191.058 159.427 191.05 159.425C191.033 159.422 191.008 159.416 190.975 159.409C190.91 159.394 190.814 159.373 190.695 159.345C190.456 159.29 190.123 159.21 189.747 159.113C188.988 158.917 188.079 158.655 187.412 158.382L187.185 158.936L186.958 159.489C187.704 159.794 188.677 160.072 189.446 160.27C189.834 160.371 190.177 160.453 190.424 160.51C190.547 160.538 190.646 160.561 190.714 160.576C190.749 160.584 190.775 160.589 190.794 160.593C190.803 160.595 190.81 160.597 190.815 160.598C190.817 160.598 190.819 160.599 190.82 160.599C190.821 160.599 190.822 160.599 190.822 160.599C190.822 160.6 190.822 160.6 190.822 160.6C190.822 160.6 190.823 160.6 190.823 160.6C190.823 160.6 190.823 160.6 190.948 160.015ZM197.901 150.933L197.419 150.58C195.168 153.651 193.869 155.422 190.482 159.641L190.948 160.015L191.414 160.389C194.816 156.151 196.126 154.365 198.383 151.286L197.901 150.933ZM198.872 149.61L198.39 149.257C198.044 149.728 197.723 150.166 197.419 150.58L197.901 150.933L198.383 151.286C198.687 150.872 199.008 150.434 199.354 149.963L198.872 149.61ZM201.324 146.663L200.851 146.297C200.089 147.281 199.372 148.206 198.437 149.201L198.872 149.61L199.307 150.019C200.286 148.977 201.035 148.01 201.796 147.029L201.324 146.663ZM206.624 140.857L206.224 140.414C203.532 142.84 202.142 144.633 200.851 146.297L201.324 146.663L201.796 147.029C203.072 145.382 204.411 143.655 207.024 141.301L206.624 140.857ZM203.579 148.865L204.136 149.082C205.261 146.21 206.277 143.537 207.185 141.063L206.624 140.857L206.063 140.652C205.158 143.117 204.145 145.782 203.023 148.648L203.579 148.865ZM200.157 157.76L200.714 157.977C201.904 154.925 203.045 151.958 204.138 149.076L203.579 148.865L203.021 148.654C201.929 151.532 200.789 154.495 199.6 157.544L200.157 157.76ZM196.089 167.666L196.641 167.895C198.015 164.597 199.829 160.244 200.714 157.977L200.157 157.76L199.6 157.544C198.721 159.795 196.914 164.132 195.538 167.437L196.089 167.666ZM194.9 170.525L195.453 170.753C195.765 169.999 196.178 169.007 196.641 167.895L196.089 167.666L195.538 167.437C195.075 168.548 194.661 169.542 194.348 170.298L194.9 170.525ZM194.937 170.544L195.212 170.013L195.176 169.995L194.9 170.525L194.625 171.056L194.661 171.075L194.937 170.544ZM197.993 171.645L198.107 171.058C196.709 170.79 196.041 170.443 195.212 170.013L194.937 170.544L194.661 171.075C195.529 171.525 196.316 171.932 197.88 172.232L197.993 171.645ZM198.388 171.721L198.503 171.134C198.377 171.11 198.246 171.085 198.107 171.058L197.993 171.645L197.88 172.232C198.018 172.258 198.148 172.284 198.274 172.308L198.388 171.721ZM201.659 172.093L201.66 171.495C200.367 171.495 199.732 171.372 198.503 171.134L198.388 171.721L198.274 172.308C199.521 172.55 200.247 172.691 201.658 172.691L201.659 172.093ZM204.637 171.981L204.56 171.388C203.752 171.494 203.157 171.495 201.66 171.495L201.659 172.093L201.658 172.691C203.139 172.691 203.814 172.691 204.714 172.574L204.637 171.981ZM207.047 165.042L206.484 164.844C205.655 167.193 204.527 170.389 204.069 171.797L204.637 171.981L205.205 172.165C205.658 170.775 206.779 167.599 207.611 165.241L207.047 165.042ZM207.502 163.753L206.938 163.556C206.804 163.938 206.65 164.374 206.484 164.844L207.047 165.042L207.611 165.241C207.777 164.771 207.931 164.334 208.066 163.951L207.502 163.753ZM210.097 156.404L209.533 156.205C208.613 158.806 207.748 161.256 206.938 163.556L207.502 163.753L208.066 163.951C208.875 161.652 209.74 159.202 210.66 156.602L210.097 156.404ZM212.857 148.602L212.294 148.403L209.533 156.205L210.097 156.404L210.66 156.602L213.421 148.801L212.857 148.602ZM215.498 141.268L214.934 141.071C214.137 143.337 213.257 145.779 212.296 148.397L212.857 148.602L213.418 148.807C214.381 146.185 215.262 143.738 216.062 141.466L215.498 141.268ZM217.898 134.95L217.34 134.737C216.409 137.168 215.393 139.821 214.937 141.063L215.498 141.268L216.059 141.474C216.511 140.242 217.523 137.6 218.457 135.163L217.898 134.95ZM219.705 130.201L219.144 129.996C218.866 130.752 218.134 132.663 217.34 134.737L217.898 134.95L218.457 135.163C219.249 133.095 219.985 131.173 220.266 130.407L219.705 130.201ZM213.792 130.733L213.772 131.331C214.68 131.36 216.201 131.221 217.457 131.082C218.094 131.011 218.676 130.939 219.098 130.885C219.31 130.858 219.481 130.835 219.6 130.819C219.66 130.811 219.706 130.804 219.738 130.8C219.754 130.798 219.766 130.796 219.774 130.795C219.778 130.794 219.781 130.794 219.784 130.794C219.785 130.794 219.785 130.793 219.786 130.793C219.786 130.793 219.786 130.793 219.787 130.793C219.787 130.793 219.787 130.793 219.787 130.793C219.787 130.793 219.787 130.793 219.705 130.201C219.623 129.609 219.623 129.609 219.623 129.609C219.623 129.609 219.623 129.609 219.623 129.609C219.623 129.609 219.623 129.609 219.622 129.609C219.622 129.609 219.621 129.61 219.62 129.61C219.618 129.61 219.616 129.61 219.612 129.611C219.604 129.612 219.592 129.614 219.577 129.616C219.546 129.62 219.501 129.626 219.442 129.634C219.325 129.65 219.156 129.672 218.947 129.699C218.529 129.753 217.955 129.824 217.328 129.894C216.057 130.034 214.621 130.162 213.812 130.136L213.792 130.733ZM210.973 130.769L210.994 131.367C211.883 131.333 212.782 131.299 213.772 131.331L213.792 130.733L213.812 130.136C212.774 130.103 211.836 130.139 210.951 130.172L210.973 130.769ZM208.509 130.805L208.489 131.402C209.344 131.43 210.167 131.398 210.994 131.367L210.973 130.769L210.951 130.172C210.118 130.204 209.335 130.233 208.529 130.208L208.509 130.805ZM204.865 135.897L205.363 136.228C206.512 134.501 207.665 132.77 208.97 131.184L208.509 130.805L208.048 130.426C206.698 132.065 205.512 133.848 204.368 135.566L204.865 135.897ZM200.698 141.538L201.138 141.942C202.679 140.262 204.021 138.243 205.363 136.228L204.865 135.897L204.368 135.566C203.014 137.599 201.724 139.536 200.257 141.134L200.698 141.538ZM197.096 146.053L197.575 146.41C198.801 144.764 199.893 143.299 201.138 141.942L200.698 141.538L200.257 141.135C198.964 142.544 197.836 144.06 196.617 145.697L197.096 146.053ZM191.773 152.656L192.215 153.058C194.48 150.566 196.116 148.37 197.575 146.41L197.096 146.053L196.617 145.697C195.158 147.656 193.553 149.81 191.331 152.254L191.773 152.656ZM191.238 144.31L190.641 144.338C190.771 147.212 190.95 150.002 191.177 152.707L191.773 152.656L192.369 152.605C192.142 149.916 191.965 147.142 191.835 144.282L191.238 144.31ZM191.064 135.836L190.466 135.84C190.483 138.64 190.542 141.47 190.641 144.332L191.238 144.31L191.836 144.289C191.737 141.438 191.679 138.619 191.661 135.831L191.064 135.836ZM191.26 129.326L190.663 129.297C190.558 131.382 190.451 133.486 190.466 135.84L191.064 135.836L191.661 135.831C191.647 133.515 191.752 131.444 191.857 129.355L191.26 129.326ZM191.321 128.097L190.724 128.069C190.705 128.479 190.684 128.887 190.663 129.297L191.26 129.326L191.857 129.355C191.878 128.946 191.899 128.536 191.919 128.125L191.321 128.097ZM187.971 127.39L187.783 127.958C188.795 128.29 189.881 128.649 191.302 128.694L191.321 128.097L191.341 127.499C190.11 127.46 189.17 127.154 188.158 126.822L187.971 127.39ZM186.654 126.988L186.502 127.566C186.936 127.68 187.35 127.815 187.783 127.958L187.971 127.39L188.158 126.822C187.729 126.681 187.281 126.534 186.806 126.409L186.654 126.988Z" fill="#E1C8FF" mask="url(#path-7-outside-1_94_6)"/>
</mask>
<g mask="url(#mask0_94_6)">
<rect x="-22.1757" y="-27.2393" width="375.889" height="387.671" fill="#313131" stroke="#313131" stroke-width="0.222524"/>
<rect x="249.851" y="178.026" width="43.7685" height="42.7608" fill="#313131" stroke="#313131" stroke-width="0.953386"/>
</g>
</g>
<defs>
<filter id="filter0_dddi_94_6" x="0" y="0" width="299.174" height="319.972" filterUnits="userSpaceOnUse" color-interpolation-filters="sRGB">
<feFlood flood-opacity="0" result="BackgroundImageFix"/>
<feColorMatrix in="SourceAlpha" type="matrix" values="0 0 0 0 0 0 0 0 0 0 0 0 0 0 0 0 0 0 127 0" result="hardAlpha"/>
<feOffset dy="3.81354"/>
<feGaussianBlur stdDeviation="1.90677"/>
<feComposite in2="hardAlpha" operator="out"/>
<feColorMatrix type="matrix" values="0 0 0 0 0 0 0 0 0 0 0 0 0 0 0 0 0 0 0.25 0"/>
<feBlend mode="normal" in2="BackgroundImageFix" result="effect1_dropShadow_94_6"/>
<feColorMatrix in="SourceAlpha" type="matrix" values="0 0 0 0 0 0 0 0 0 0 0 0 0 0 0 0 0 0 127 0" result="hardAlpha"/>
<feOffset dx="3" dy="5.4"/>
<feGaussianBlur stdDeviation="3.5"/>
<feComposite in2="hardAlpha" operator="out"/>
<feColorMatrix type="matrix" values="0 0 0 0 1 0 0 0 0 0.980392 0 0 0 0 0.909804 0 0 0 0.3 0"/>
<feBlend mode="normal" in2="effect1_dropShadow_94_6" result="effect2_dropShadow_94_6"/>
<feColorMatrix in="SourceAlpha" type="matrix" values="0 0 0 0 0 0 0 0 0 0 0 0 0 0 0 0 0 0 127 0" result="hardAlpha"/>
<feOffset dx="-5" dy="4"/>
<feGaussianBlur stdDeviation="7.5"/>
<feComposite in2="hardAlpha" operator="out"/>
<feColorMatrix type="matrix" values="0 0 0 0 0 0 0 0 0 0 0 0 0 0 0 0 0 0 0.3 0"/>
<feBlend mode="normal" in2="effect2_dropShadow_94_6" result="effect3_dropShadow_94_6"/>
<feBlend mode="normal" in="SourceGraphic" in2="effect3_dropShadow_94_6" result="shape"/>
<feColorMatrix in="SourceAlpha" type="matrix" values="0 0 0 0 0 0 0 0 0 0 0 0 0 0 0 0 0 0 127 0" result="hardAlpha"/>
<feOffset dx="5" dy="4"/>
<feGaussianBlur stdDeviation="5"/>
<feComposite in2="hardAlpha" operator="arithmetic" k2="-1" k3="1"/>
<feColorMatrix type="matrix" values="0 0 0 0 0 0 0 0 0 0 0 0 0 0 0 0 0 0 0.55 0"/>
<feBlend mode="normal" in2="shape" result="effect4_innerShadow_94_6"/>
</filter>
</defs>
</svg>
